P3
# Created by GIMP version 2.10.30 PNM plug-in
4 4
255
255
0
0
14
0
255
255
0
0
14
0
255
14
0
255
255
0
0
14
0
255
31
255
0
255
0
0
31
255
0
31
255
0
14
0
255
14
0
255
255
0
0
14
0
255
31
255
0
